# xmcd
#
# Track frame offsets: 
#        182
#        19652
#        38867
#        60420
#        79720
#        100695
#        125790
#        149710
#        168637
#        197307
#        214777
#        238070
#
# Disc length: 3432 seconds
#
# Revision: 3
# Processed by: cddbd v1.5.2PL0 Copyright (c) Steve Scherf et al.
# Submitted via: ExactAudioCopyFreeDBPlugin 1.0
#
DISCID=a50d660c
DTITLE=Various Artist - Smooth Grooves:  Jazzy Soul [Rhino]
DYEAR=2000
DGENRE=SMB
TTITLE0=Loose Ends - You Can't Stop the Rain
TTITLE1=Al Jarreau - Mornin'
TTITLE2=Minnie Riperton - Inside My Love
TTITLE3=Bill Withers - Lovely Day
TTITLE4=Shirley Jones - Do You Get Enough Love
TTITLE5=Maze - Golden Time of Day
TTITLE6=Patrice Rushen - Remind Me
TTITLE7=The Blackbyrds - Walking in Rhythm
TTITLE8=Norman Connors - Betcha By Golly Wow (ft Phyllis Hyman)
TTITLE9=Quincy Jones - Is It Love That We're Missin' (ft The Brothers 
TTITLE9=Johnson)
TTITLE10=Kashif - Send Me Your Love
TTITLE11=Miki Howard - Imagination
EXTD=
EXTT0=
EXTT1=
EXTT2=
EXTT3=
EXTT4=
EXTT5=
EXTT6=
EXTT7=
EXTT8=
EXTT9=
EXTT10=
EXTT11=
PLAYORDER=
